/* XPM */
static char *collectible_xpm[] = {
/* columns rows colors chars-per-pixel */
"32 32 9 1",
"  c #4A1A6A",
". c #6B2C90",
"X c #8B45C5",
"o c #A56BDE",
"O c #C08AFF",
"+ c #E0C2FF",
"@ c #F0E0FF",
"# c #2D0F42",
"$ c #FFFFFF",
/* pixels */
"                                ",
"            ........            ",
"          ..XXXXXXXX..          ",
"         .XXooooooooXX.         ",
"        .XooOOOOOOOOooX.        ",
"       .XoOOOO@@@@OOOOoX.       ",
"      .XoOOO@@$$$$@@OOOoX.      ",
"      .XoOOO@$$$$$$@OOOoX.      ",
"     .XooOO@$$$$$$$$@OOooX.     ",
"     .XoOOO@$$$$$$$$@OOOoX.     ",
"    .XooOOO@$$$$$$$$@OOOOoX.    ",
"    .XoOOOO@$$$$$$$$@OOOOoX.    ",
"    .XoOOOO@$$$$$$$$@OOOOoX.    ",
"    .XoOOOO@$$$$$$$$@OOOOoX.    ",
"    .XoOOOO@$$$$$$$$@OOOOoX.    ",
"    .XoOOOO@$$$$$$$$@OOOOoX.    ",
"    .XoOOOO@$$$$$$$$@OOOOoX.    ",
"    .XoOOOO@$$$$$$$$@OOOOoX.    ",
"    .XooOOO@$$$$$$$$@OOOOoX.    ",
"     .XoOOO@$$$$$$$$@OOOoX.     ",
"     .XooOO@$$$$$$$$@OOooX.     ",
"      .XoOOO@$$$$$$@OOOoX.      ",
"      .XoOOO@@$$$$@@OOOoX.      ",
"       .XoOOOO@@@@OOOOoX.       ",
"        .XooOOOOOOOOooX.        ",
"         .XXooooooooXX.         ",
"          ..XXXXXXXX..          ",
"            ........            ",
"                                ",
"             #  #               ",
"             #  #               ",
"             #  #               "
};