/* XPM */
static char *player_xpm[] = {
/* columns rows colors chars-per-pixel */
"32 32 12 1",
"  c #000000",
". c #8B0000",
"X c #FF0000",
"o c #CD5C5C",
"O c #F08080",
"+ c #DEB887",
"@ c #D2B48C",
"# c #FFD700",
"$ c #8B4513",
"% c #FFFFFF",
"& c #C0C0C0",
"* c #808080",
/* pixels */
"                                ",
"            ........            ",
"          ..XXXXXXXX..          ",
"         .XXooooooooXX.         ",
"        .XoOOOOOOOOOOoX.        ",
"       .XoOOO%%%%%%OOOoX.       ",
"      .XoOOO%%%%%%%%OOOoX.      ",
"      .XoOOO%%%%%%%%OOOoX.      ",
"     .XoOOO%%%%%%%%%%OOOoX.     ",
"     .XoOOO%%%%%%%%%%OOOoX.     ",
"    .XoOOO%%%%%%%%%%%%OOOoX.    ",
"    .XoOOO%%%%%%%%%%%%OOOoX.    ",
"    .XoOOO%%%%%%%%%%%%OOOoX.    ",
"    .XoOOO%%%%%%%%%%%%OOOoX.    ",
"    .XoOOO%%%%%%%%%%%%OOOoX.    ",
"    .XoOOO%%%%%%%%%%%%OOOoX.    ",
"    .XoOOO%%%%%%%%%%%%OOOoX.    ",
"    .XoOOO%%%%%%%%%%%%OOOoX.    ",
"     .XoOOO%%%%%%%%%%OOOoX.     ",
"     .XoOOO%%%%%%%%%%OOOoX.     ",
"      .XoOOO%%%%%%%%OOOoX.      ",
"      .XoOOO%%%%%%%%OOOoX.      ",
"       .XoOOO%%%%%%OOOoX.       ",
"        .XoOOOOOOOOOOoX.        ",
"         .XXooooooooXX.         ",
"          ..XXXXXXXX..          ",
"            ........            ",
"             ++++++             ",
"             +@+@+@             ",
"             +@+@+@             ",
"             +@+@+@             ",
"             +@+@+@             "
};